<?xml version="1.0" standalone="no"?>
<!DOCTYPE svg PUBLIC "-//W3C//DTD SVG 20010904//EN"
 "http://www.w3.org/TR/2001/REC-SVG-20010904/DTD/svg10.dtd">
<svg version="1.0" xmlns="http://www.w3.org/2000/svg"
 width="512.000000pt" height="512.000000pt" viewBox="0 0 512.000000 512.000000"
 preserveAspectRatio="xMidYMid meet">
<g transform="translate(0.000000,512.000000) scale(0.100000,-0.100000)"
fill="#000000" stroke="none">
<path d="M1430 4789 c-292 -34 -545 -218 -654 -476 -140 -334 -79 -688 164
-934 168 -171 393 -258 634 -246 134 7 229 32 346 93 287 149 472 473 446 783
-36 432 -323 734 -741 781 -49 5 -97 9 -105 9 -8 -1 -49 -5 -90 -10z m205 -34
c39 -3 77 -6 85 -7 8 0 20 -5 27 -10 7 -5 17 -7 23 -3 5 3 10 1 10 -6 0 -7 3
-10 6 -6 4 3 19 0 35 -8 15 -8 37 -15 49 -15 11 0 20 -4 20 -9 0 -5 10 -13 23
-17 34 -10 138 -84 180 -129 21 -22 43 -39 48 -37 6 1 8 -1 5 -6 -3 -5 10 -25
28 -45 19 -21 32 -37 29 -37 -2 0 9 -19 25 -42 65 -97 108 -273 106 -433 -2
-126 -3 -132 -49 -275 -1 -3 -10 -23 -20 -45 -10 -22 -19 -42 -20 -45 -1 -11
-76 -119 -90 -130 -8 -7 -12 -17 -8 -24 3 -6 2 -8 -2 -3 -5 4 -28 -13 -51 -38
-24 -25 -47 -45 -53 -45 -5 0 -13 -5 -17 -12 -5 -7 -2 -8 7 -3 8 5 11 4 6 -1
-5 -5 -12 -9 -15 -9 -16 -1 -72 -36 -72 -45 0 -6 -3 -9 -7 -8 -5 1 -33 -10
-63 -24 -90 -41 -124 -53 -144 -49 -12 2 -16 -1 -11 -10 6 -9 2 -11 -13 -7
-11 3 -50 0 -85 -6 -60 -12 -106 -10 -242 8 -22 3 -72 16 -112 30 -39 13 -75
21 -79 18 -4 -4 -4 -1 0 6 5 8 0 12 -13 12 -12 0 -21 4 -21 9 0 5 -10 12 -22
15 -13 3 -36 17 -53 31 -16 14 -54 43 -84 65 -30 22 -52 40 -48 40 3 0 -8 15
-25 33 -61 65 -153 220 -142 239 4 6 3 8 -4 4 -6 -3 -13 5 -16 21 -34 154 -38
191 -32 288 3 55 7 114 10 130 8 57 39 160 55 184 8 13 16 30 17 37 1 7 16 33
33 58 18 25 30 46 27 46 -4 0 29 38 86 98 12 13 34 29 48 36 14 7 24 18 22 24
-1 7 3 12 9 12 6 0 29 13 52 29 23 15 52 31 65 35 12 4 22 12 22 17 0 5 3 8 8
7 4 -1 45 10 92 24 146 44 181 47 355 33z"/>
<path d="M1382 4655 c-35 -8 -70 -19 -78 -26 -8 -6 -14 -9 -14 -5 0 13 -146
-67 -169 -92 -13 -15 -20 -20 -16 -12 4 8 -9 -2 -29 -22 -20 -21 -41 -38 -47
-38 -5 0 -7 -5 -3 -12 5 -8 2 -9 -10 -5 -10 4 -15 3 -11 -3 3 -5 -12 -33 -35
-61 -22 -28 -40 -55 -40 -60 0 -6 -6 -7 -12 -3 -7 4 -10 4 -6 -1 4 -4 2 -17
-5 -29 -48 -86 -76 -222 -73 -345 4 -104 30 -225 57 -257 6 -8 8 -14 4 -14
-10 0 44 -91 73 -122 14 -16 22 -28 18 -28 -5 0 -3 -7 4 -15 7 -8 17 -12 24
-8 6 4 4 -2 -4 -12 -8 -10 -10 -16 -3 -12 8 5 27 -8 50 -32 21 -22 55 -47 76
-56 20 -8 37 -19 37 -23 0 -11 100 -56 122 -55 11 1 16 -3 12 -9 -5 -7 -1 -9
9 -5 9 3 19 2 22 -3 16 -27 306 -39 346 -14 7 4 25 8 41 9 15 2 34 7 41 13 6
5 31 15 54 21 50 14 144 75 207 136 26 25 45 45 41 45 -11 0 19 26 38 33 15 5
20 18 16 43 0 4 4 10 9 13 12 7 69 129 76 162 31 136 39 242 26 308 -5 25 -12
57 -14 71 -12 63 -52 157 -84 193 -8 9 -12 17 -8 17 4 0 0 7 -8 16 -9 8 -14
19 -11 24 3 5 0 12 -6 16 -8 5 -10 2 -5 -7 4 -8 -1 -3 -11 11 -25 35 -124 130
-135 130 -5 0 -6 5 -3 10 4 6 3 10 -2 9 -17 -3 -32 1 -45 14 -14 13 -104 58
-153 75 -95 34 -251 41 -363 17z m293 -30 c142 -30 301 -129 388 -243 165
-214 190 -482 69 -732 -50 -104 -176 -230 -282 -282 -112 -55 -187 -72 -315
-72 -126 0 -202 17 -310 69 -236 114 -376 362 -362 640 22 411 407 705 812
620z"/>
<path d="M1483 4526 c-24 -20 -28 -32 -28 -75 0 -39 -4 -51 -15 -51 -28 0
-125 -51 -158 -83 -130 -124 -86 -323 87 -400 25 -11 92 -26 148 -32 114 -14
162 -36 177 -78 16 -43 -3 -79 -54 -104 -110 -56 -280 -4 -280 85 0 31 -43 72
-75 72 -16 0 -39 -12 -57 -30 -26 -27 -29 -35 -23 -68 21 -117 108 -209 220
-232 28 -5 29 -8 27 -48 -3 -36 1 -47 26 -72 36 -35 69 -38 106 -9 22 18 26
28 26 75 0 49 2 54 23 54 34 1 108 38 145 73 110 105 112 246 5 349 -53 51
-118 77 -220 89 -114 12 -147 24 -178 60 -32 39 -32 64 3 99 53 53 173 64 257
24 37 -17 65 -58 65 -93 0 -25 45 -61 76 -61 39 0 78 42 77 82 -1 48 -37 125
-76 167 -35 37 -119 81 -154 81 -21 0 -23 5 -23 50 0 88 -66 128 -127 76z m73
-26 c3 0 2 6 -1 13 -4 6 1 3 9 -7 9 -11 16 -34 16 -52 0 -18 3 -40 6 -49 8
-19 61 -48 74 -40 6 3 10 1 10 -5 0 -7 7 -9 16 -6 8 3 12 2 9 -4 -3 -6 3 -10
14 -10 22 0 87 -70 106 -115 22 -51 21 -89 -1 -111 -32 -32 -68 -11 -80 44 -4
21 -34 62 -45 62 -6 0 -8 4 -5 9 9 13 -64 40 -127 47 -151 15 -269 -97 -197
-188 10 -14 16 -29 12 -33 -4 -5 -1 -5 6 -1 7 4 27 -1 45 -12 19 -12 61 -22
102 -26 61 -6 151 -28 205 -49 15 -6 77 -77 88 -100 19 -44 15 -137 -8 -174
-11 -18 -17 -33 -14 -33 3 0 -18 -20 -47 -45 -28 -24 -54 -43 -58 -43 -3 1
-20 -2 -37 -6 -49 -11 -74 -41 -74 -86 0 -21 -5 -42 -10 -45 -6 -4 -8 -10 -6
-14 7 -10 -36 -8 -53 3 -10 7 -12 5 -6 -5 6 -10 5 -11 -4 -3 -6 6 -13 34 -15
64 -4 48 -18 71 -46 75 -22 3 -87 31 -98 42 -7 7 -21 13 -29 13 -9 0 -14 3
-10 6 3 3 -3 15 -13 26 -28 30 -48 77 -54 126 -5 40 0 47 27 43 4 0 7 3 7 8 0
5 8 8 18 6 9 -2 20 -4 24 -4 4 -1 12 -19 18 -41 27 -101 127 -148 269 -126 85
13 152 99 121 155 -6 12 -8 21 -4 21 4 0 -7 14 -25 30 -17 17 -36 28 -41 25
-6 -3 -10 -1 -10 4 0 6 -3 10 -7 9 -5 -1 -26 4 -48 10 -23 6 -50 10 -62 8 -27
-6 -130 21 -160 40 -13 8 -23 12 -23 9 0 -3 -12 6 -27 20 -15 14 -31 25 -36
25 -4 0 -5 5 -2 10 3 6 2 10 -4 10 -5 0 -12 14 -16 30 -4 17 -10 30 -13 30
-13 0 -5 115 9 141 7 13 12 27 11 32 -1 4 3 7 9 7 5 0 7 6 3 13 -4 6 -3 9 1 4
5 -4 24 7 42 25 18 17 33 29 33 24 0 -4 10 0 22 8 12 9 32 16 44 16 38 0 69
34 70 77 0 21 4 48 8 60 6 19 11 21 32 13 14 -6 28 -10 30 -10z"/>
<path d="M1850 4511 c0 -6 4 -13 10 -16 6 -3 7 1 4 9 -7 18 -14 21 -14 7z"/>
<path d="M1800 4346 c0 -2 8 -10 18 -17 15 -13 16 -12 3 4 -13 16 -21 21 -21
13z"/>
<path d="M2004 3574 c1 -8 4 -15 7 -16 2 -2 3 -1 2 1 -2 2 2 9 7 16 7 8 5 12
-4 12 -8 0 -13 -6 -12 -13z"/>
<path d="M2126 4631 c-4 -5 -2 -12 3 -15 5 -4 12 -2 15 3 4 5 2 12 -3 15 -5 4
-12 2 -15 -3z"/>
<path d="M2213 4545 c0 -8 4 -12 9 -9 5 3 6 10 3 15 -9 13 -12 11 -12 -6z"/>
<path d="M3318 4340 c-25 -26 -29 -36 -24 -63 11 -53 27 -61 131 -67 l95 -5
-112 -125 c-154 -172 -494 -511 -664 -661 -560 -495 -1122 -878 -1782 -1216
-133 -69 -247 -133 -252 -143 -26 -49 11 -120 63 -120 47 0 486 229 791 412
707 425 1398 994 1939 1596 60 67 111 122 112 122 1 0 1 -26 -2 -57 -4 -68 10
-102 51 -121 32 -16 80 -2 96 29 11 19 14 377 4 404 -15 37 -56 45 -239 45
l-177 0 -30 -30z m413 -22 c5 -7 9 -94 9 -193 -1 -216 -5 -228 -77 -193 -18 9
-21 18 -18 52 1 22 -2 47 -9 55 -8 12 -8 13 2 7 6 -4 12 -2 12 3 0 6 0 14 0
19 0 4 -3 7 -7 8 -5 0 -17 4 -27 9 -15 6 -26 0 -52 -27 -18 -20 -36 -33 -40
-30 -4 4 -5 2 -1 -3 7 -14 -19 -49 -32 -41 -5 4 -12 2 -16 -4 -3 -5 -1 -10 5
-10 7 0 -3 -15 -22 -33 -18 -18 -53 -55 -77 -82 -25 -28 -56 -58 -70 -67 -15
-10 -23 -18 -19 -18 9 0 -302 -310 -382 -380 -35 -30 -78 -70 -96 -87 -18 -18
-35 -33 -38 -33 -3 0 -14 -8 -24 -17 -10 -10 -42 -38 -72 -63 -29 -25 -66 -56
-82 -70 -51 -45 -58 -51 -58 -46 0 3 -17 -11 -37 -29 -21 -19 -41 -35 -44 -35
-3 0 -21 -14 -40 -31 -46 -42 -147 -119 -157 -119 -4 0 -23 -16 -41 -35 -19
-19 -43 -37 -53 -41 -10 -3 -18 -10 -18 -15 0 -5 -5 -9 -10 -9 -12 0 -121 -78
-132 -94 -4 -6 -8 -8 -8 -4 0 7 -83 -48 -180 -119 -14 -10 -27 -18 -30 -18 -3
0 -24 -13 -47 -28 -24 -15 -48 -27 -54 -27 -7 0 -9 -3 -5 -7 6 -7 -37 -34 -76
-49 -10 -3 -18 -11 -18 -16 0 -5 -4 -7 -8 -4 -5 3 -19 -4 -31 -15 -11 -11 -42
-31 -69 -45 -83 -44 -107 -59 -114 -69 -4 -5 -8 -6 -8 -2 0 4 -20 -6 -45 -23
-25 -17 -54 -32 -65 -33 -11 -1 -20 -4 -20 -8 0 -8 -16 -16 -222 -122 -81 -41
-153 -79 -160 -83 -14 -9 -17 -10 -59 -20 -51 -12 -80 54 -39 91 11 10 20 15
20 12 0 -9 160 71 182 90 9 9 22 12 30 7 7 -4 10 -3 6 1 -8 8 113 66 139 68 7
0 10 4 7 8 -2 4 5 10 16 14 11 3 20 11 20 17 0 6 3 8 7 5 7 -8 93 39 105 57 4
6 8 7 8 3 0 -5 7 -1 16 8 12 12 19 13 30 4 10 -8 12 -6 9 10 -2 12 0 19 4 17
10 -7 82 30 74 37 -3 3 6 9 21 13 14 3 26 10 26 15 0 5 6 9 14 9 7 0 25 9 40
21 14 11 31 17 38 13 7 -4 10 -3 6 1 -5 5 15 21 42 37 28 16 50 34 50 40 0 6
3 8 7 5 3 -4 21 4 39 18 18 14 37 25 42 25 5 0 21 12 36 26 14 15 26 23 26 19
0 -5 10 0 23 11 12 11 34 25 50 32 15 6 27 16 27 22 0 5 5 10 11 10 10 0 42
23 88 63 8 6 20 14 25 17 34 16 126 82 126 90 0 6 7 10 16 10 8 0 13 4 9 9 -3
5 11 15 30 21 19 6 33 15 30 20 -3 5 4 11 15 15 11 3 20 10 20 15 0 5 8 11 18
14 9 3 32 20 50 36 17 17 32 27 32 23 0 -4 15 7 33 25 54 55 111 102 124 102
6 0 15 5 19 12 5 7 3 8 -6 3 -9 -5 -11 -4 -6 4 4 6 11 9 16 6 5 -3 11 -1 15 5
4 6 12 7 18 4 7 -4 9 -4 5 1 -10 11 10 45 27 45 8 0 19 9 25 20 6 11 17 20 24
20 8 0 26 14 40 31 15 17 34 32 44 33 9 2 18 8 18 14 1 7 2 17 3 22 0 6 6 10
11 10 6 0 21 10 33 23 12 13 39 36 59 51 21 16 35 32 32 37 -3 5 3 6 12 2 11
-4 15 -2 11 4 -4 6 0 14 9 17 8 3 12 11 8 17 -4 7 -3 9 2 6 6 -3 38 23 72 59
35 35 67 64 72 64 6 0 9 3 8 8 -1 4 40 50 92 102 52 52 94 99 92 103 -1 5 2 6
7 3 5 -3 20 9 34 27 13 17 40 48 58 68 69 75 93 104 91 113 -2 5 5 5 15 2 9
-4 14 -4 11 0 -4 4 2 18 12 32 42 52 20 69 -94 71 -43 1 -83 4 -87 7 -5 3 -9
23 -9 44 0 38 1 39 38 42 20 2 109 2 196 1 119 -1 161 -5 167 -15z"/>
<path d="M3293 4175 c0 -8 4 -12 9 -9 5 3 6 10 3 15 -9 13 -12 11 -12 -6z"/>
<path d="M3320 4065 c-7 -9 -11 -17 -9 -20 3 -2 10 5 17 15 14 24 10 26 -8 5z"/>
<path d="M3221 3986 c-9 -11 -9 -16 1 -22 7 -4 10 -4 6 1 -4 4 -3 14 3 22 6 7
9 13 6 13 -2 0 -10 -6 -16 -14z"/>
<path d="M3496 3872 c-3 -5 1 -9 9 -9 8 0 12 4 9 9 -3 4 -7 8 -9 8 -2 0 -6 -4
-9 -8z"/>
<path d="M3417 3789 c7 -7 15 -10 18 -7 3 3 -2 9 -12 12 -14 6 -15 5 -6 -5z"/>
<path d="M2655 3429 c-4 -6 -4 -13 -1 -16 3 -4 6 -1 6 6 0 7 5 9 12 5 7 -4 8
-3 4 4 -9 15 -13 15 -21 1z"/>
<path d="M3660 3387 c-13 -7 -30 -24 -37 -37 -10 -20 -12 -320 -10 -1448 l2
-1422 -82 0 -83 0 0 1100 c0 784 -3 1106 -11 1123 -20 45 -40 47 -400 47
l-341 0 -29 -29 -29 -29 0 -1106 0 -1106 -80 0 -80 0 0 775 c0 546 -3 781 -11
798 -20 45 -40 47 -405 47 l-345 0 -24 -25 -25 -24 0 -786 0 -785 -82 0 -83 0
3 432 c2 238 0 448 -3 466 -3 17 -16 41 -27 52 -21 19 -36 20 -375 20 l-354 0
-24 -25 -25 -24 0 -461 0 -460 -134 0 c-127 0 -136 -1 -162 -23 -37 -33 -37
-81 0 -114 l27 -23 2128 0 2128 0 27 21 c37 29 37 89 0 118 -24 19 -40 21
-160 21 l-134 0 0 1433 c-1 1110 -3 1436 -13 1448 -28 37 -49 39 -389 39 -247
0 -339 -4 -358 -13z m716 -38 c12 -10 14 -236 14 -1437 0 -1312 1 -1427 17
-1444 14 -15 32 -18 124 -18 64 0 110 -4 114 -10 5 -8 11 -8 20 0 23 19 42 1
42 -38 0 -20 -5 -40 -11 -44 -6 -4 -967 -8 -2136 -7 -1652 0 -2128 2 -2140 12
-20 15 -21 59 -1 73 8 6 69 12 145 13 104 2 135 6 149 18 16 15 17 47 17 457
0 243 0 449 0 459 0 9 6 17 14 17 8 0 16 5 18 11 3 9 625 14 683 5 24 -4 23
23 29 -504 3 -318 7 -437 16 -447 20 -24 172 -21 193 3 15 17 17 89 17 800 0
769 1 781 20 787 11 4 20 9 20 13 0 4 155 5 345 2 329 -5 345 -6 359 -25 10
-14 11 -25 4 -39 -7 -13 -9 -271 -7 -771 4 -615 7 -755 18 -769 11 -12 32 -16
100 -16 54 0 92 5 99 12 9 9 12 271 12 1117 0 609 4 1112 8 1119 7 9 88 12
361 13 342 0 354 -1 367 -20 12 -17 14 -193 14 -1112 0 -1005 1 -1094 16
-1111 24 -25 174 -27 195 -1 12 13 14 251 17 1441 2 962 6 1430 13 1438 15 19
26 19 378 17 225 -2 328 -6 337 -14z"/>
<path d="M3790 3263 c-8 -3 -23 -12 -32 -21 -17 -14 -18 -93 -18 -1387 0
-1316 1 -1373 18 -1388 16 -15 50 -17 264 -17 193 0 248 3 257 13 8 10 11 393
11 1393 0 1214 -1 1380 -15 1390 -8 6 -12 14 -9 17 8 7 -456 8 -476 0z m470
-1403 l0 -1380 -245 0 -245 0 0 1380 0 1380 245 0 245 0 0 -1380z"/>
<path d="M2786 2601 c-14 -16 -16 -120 -16 -1068 0 -1004 1 -1051 18 -1066 16
-15 49 -17 259 -17 220 0 241 2 257 18 15 17 16 104 16 1075 0 1041 -1 1057
-20 1067 -12 7 -109 10 -259 10 -215 -1 -241 -3 -255 -19z m504 -1066 l0
-1055 -245 0 -245 0 0 1055 0 1055 245 0 245 0 0 -1055z"/>
<path d="M1833 1960 c-13 -5 -23 -14 -23 -20 0 -6 -3 -9 -7 -7 -5 3 -7 -322
-5 -721 2 -657 4 -727 19 -744 15 -16 37 -18 258 -18 222 0 243 2 258 18 16
17 17 83 17 744 0 679 -1 726 -18 741 -15 13 -51 16 -247 16 -127 0 -240 -4
-252 -9z m487 -750 l0 -730 -245 0 -245 0 0 730 0 730 245 0 245 0 0 -730z"/>
<path d="M846 1307 c-21 -18 -21 -24 -21 -422 0 -322 3 -406 14 -419 12 -14
45 -16 261 -16 226 0 248 2 263 18 15 17 17 60 17 419 0 371 -1 401 -18 416
-15 14 -53 17 -256 19 -219 3 -240 2 -260 -15z m504 -422 l0 -405 -245 0 -245
0 0 405 0 405 245 0 245 0 0 -405z"/>
<path d="M2183 3373 c0 -9 4 -10 14 -2 7 6 13 12 13 14 0 1 -6 2 -13 2 -8 0
-14 -6 -14 -14z"/>
<path d="M4779 343 c-13 -16 -12 -17 4 -4 16 13 21 21 13 21 -2 0 -10 -8 -17
-17z"/>
</g>
</svg>
