<?xml version="1.0" standalone="no"?>
<!DOCTYPE svg PUBLIC "-//W3C//DTD SVG 20010904//EN"
 "http://www.w3.org/TR/2001/REC-SVG-20010904/DTD/svg10.dtd">
<svg version="1.0" xmlns="http://www.w3.org/2000/svg"
 width="512.000000pt" height="512.000000pt" viewBox="0 0 512.000000 512.000000"
 preserveAspectRatio="xMidYMid meet">
<g transform="translate(0.000000,512.000000) scale(0.100000,-0.100000)"
fill="#000000" stroke="none">
<path d="M125 5036 c-39 -18 -80 -62 -99 -108 -14 -33 -16 -227 -16 -1780 0
-1143 4 -1756 10 -1779 12 -42 84 -114 127 -126 15 -4 463 -8 995 -8 l968 0 0
-40 c-1 -104 -45 -449 -78 -605 l-8 -35 -116 -6 c-104 -5 -121 -9 -169 -36
-59 -32 -111 -98 -129 -161 -5 -20 -10 -85 -10 -143 0 -90 3 -108 18 -122 17
-16 97 -17 945 -17 828 0 927 2 941 16 13 12 16 39 15 132 -1 128 -8 158 -56
226 -51 72 -113 98 -253 105 l-115 6 -22 120 c-25 140 -49 332 -58 465 l-7 95
978 0 c916 0 981 1 1011 18 44 23 72 54 94 102 18 38 19 106 19 1790 0 1682
-1 1752 -19 1790 -22 47 -64 89 -104 104 -20 8 -757 11 -2430 11 -1985 -1
-2407 -3 -2432 -14z m4860 -25 c-3 -5 4 -12 15 -16 11 -4 18 -11 15 -16 -3 -5
0 -6 7 -4 9 4 22 -10 35 -35 12 -22 17 -40 11 -40 -7 0 -7 -4 1 -14 8 -10 11
-468 11 -1742 0 -951 -2 -1739 -5 -1752 -8 -43 -16 -62 -26 -62 -6 0 -7 -5 -3
-12 4 -6 3 -8 -3 -5 -5 3 -20 -4 -34 -16 -14 -12 -31 -23 -38 -25 -7 -1 -449
-2 -983 -2 l-970 0 -19 -21 c-15 -18 -18 -34 -14 -88 8 -134 18 -220 40 -371
28 -182 43 -250 56 -250 5 0 9 -6 9 -14 0 -12 19 -15 98 -14 130 1 173 -8 210
-42 17 -15 34 -25 38 -21 4 3 4 1 0 -6 -3 -6 -2 -14 4 -18 6 -3 20 -25 31 -47
13 -25 15 -37 7 -32 -10 6 -11 5 -1 -7 15 -18 20 -216 6 -230 -10 -10 -1827
-14 -1843 -4 -4 3 -8 60 -8 127 l0 123 34 51 c23 35 51 60 86 79 48 26 63 29
153 31 116 2 136 4 129 16 -3 4 -1 8 4 8 11 0 23 39 37 125 38 228 45 285 57
475 1 8 0 34 0 57 -3 79 82 73 -1005 73 -646 0 -974 3 -981 10 -5 5 -15 10
-21 10 -14 0 -58 47 -74 77 -8 15 -11 509 -11 1775 0 1580 1 1757 15 1786 20
39 64 75 83 67 12 -4 13 -3 2 10 -11 13 248 15 2419 15 1489 0 2430 -4 2426
-9z"/>
<path d="M186 4973 c-23 -4 -90 -53 -71 -53 3 0 -1 -13 -10 -29 -13 -26 -15
-200 -12 -1494 2 -1223 4 -1467 16 -1480 12 -16 196 -17 2451 -17 2255 0 2439
1 2451 17 12 13 14 254 13 1487 0 809 -3 1482 -6 1495 -2 14 -10 27 -16 29 -7
2 -9 9 -5 15 4 6 0 8 -10 4 -10 -4 -20 0 -26 11 -9 16 -155 17 -2378 18 -1302
1 -2381 -1 -2397 -3z m4769 -39 c47 -18 45 34 45 -1534 l0 -1470 -2440 0
-2440 0 0 1479 0 1478 25 27 24 26 2385 0 c1311 0 2392 -3 2401 -6z"/>
<path d="M491 4568 c-25 -13 -54 -36 -65 -51 -21 -28 -21 -39 -26 -975 l-5
-947 -34 -3 c-144 -11 -179 -217 -48 -281 24 -12 53 -21 64 -21 16 0 22 -8 27
-34 13 -71 73 -116 153 -116 75 0 143 58 143 123 l0 27 1383 0 c1326 0 1384 1
1423 19 54 25 84 73 84 137 0 64 -28 110 -83 134 -41 19 -83 20 -1425 20
l-1382 0 0 941 c0 882 -1 942 -17 970 -22 37 -66 65 -113 74 -26 4 -46 0 -79
-17z m136 -40 c21 -15 37 -36 43 -59 6 -23 10 -379 10 -955 l-1 -919 22 -18
c20 -16 100 -17 1405 -17 1262 0 1386 -1 1409 -16 14 -9 25 -23 25 -31 0 -8 4
-12 8 -9 10 6 12 -11 12 -68 -1 -45 -20 -78 -56 -94 -18 -9 -383 -12 -1403
-12 -1337 0 -1379 -1 -1402 -19 -14 -10 -25 -31 -27 -45 -5 -66 -56 -101 -136
-93 -57 5 -89 35 -106 98 -10 34 -41 59 -75 59 -26 0 -65 23 -71 42 -3 10 -9
16 -13 14 -8 -5 -7 85 1 118 6 24 74 65 98 59 10 -3 27 4 39 16 l21 21 0 935
c0 851 1 938 16 961 37 56 123 71 181 32z"/>
<path d="M500 4468 c-19 -32 -20 -54 -20 -940 0 -643 3 -915 11 -932 17 -36
70 -43 110 -15 l31 22 -3 906 c-1 499 1 913 6 921 5 9 4 11 -3 6 -8 -5 -12 0
-12 13 0 25 -36 51 -72 51 -21 0 -33 -8 -48 -32z m84 -7 c3 -5 6 -426 6 -936
l0 -927 -40 -2 -40 -2 0 926 c0 707 3 929 12 938 14 14 54 16 62 3z"/>
<path d="M360 2509 c0 -5 -4 -7 -10 -4 -5 3 -10 -1 -10 -10 0 -9 -4 -13 -10
-10 -5 3 -12 -6 -16 -20 -5 -19 1 -34 20 -60 l27 -35 1548 0 c1484 0 1550 1
1571 18 15 12 24 31 25 54 2 29 -3 40 -26 57 l-28 21 -1546 0 c-1069 0 -1545
-3 -1545 -11z m3101 -29 c25 -14 25 -56 0 -70 -13 -7 -516 -10 -1555 -10
-1382 0 -1536 2 -1550 16 -21 21 -20 51 2 63 24 14 3076 15 3103 1z"/>
<path d="M507 2310 c-30 -23 -27 -42 10 -77 30 -28 43 -29 76 -3 18 14 24 28
22 47 -5 52 -62 69 -108 33z m83 -40 c-14 -26 -35 -31 -59 -14 -35 25 -26 40
24 36 39 -4 43 -6 35 -22z"/>
<path d="M2023 4112 c-6 -4 -45 -79 -86 -167 -41 -88 -109 -231 -150 -317
l-74 -157 -64 77 c-68 81 -93 94 -126 65 -11 -10 -91 -177 -179 -370 -87 -194
-161 -353 -164 -353 -3 0 -38 90 -79 200 -41 110 -79 204 -85 209 -56 42 -79
14 -137 -174 -27 -88 -49 -170 -49 -181 0 -30 23 -46 62 -42 32 3 34 5 62 95
l29 92 70 -187 c38 -103 76 -195 85 -204 8 -10 25 -18 37 -18 12 0 29 8 37 18
8 9 76 152 151 317 75 165 152 335 172 379 l35 78 61 -75 c64 -81 89 -96 120
-75 17 11 83 142 246 488 l36 75 11 -75 c46 -291 151 -848 164 -862 16 -19 48
-23 70 -10 12 8 212 453 212 472 0 5 5 12 12 16 7 4 8 3 4 -4 -9 -14 82 -119
111 -127 42 -13 59 3 104 100 24 52 47 94 50 92 4 -1 39 -44 79 -95 39 -51 78
-96 86 -99 42 -16 58 4 242 320 100 172 182 322 182 333 0 26 -30 54 -59 54
-26 0 -33 -11 -214 -322 -73 -126 -135 -228 -138 -228 -3 0 -36 41 -74 91
-117 154 -137 154 -206 5 -24 -53 -47 -96 -50 -96 -4 0 -30 27 -59 60 -41 48
-58 60 -81 60 -38 0 -46 -14 -134 -223 -39 -92 -72 -166 -75 -167 -3 0 -15 64
-28 143 -43 261 -132 742 -143 770 -9 20 -18 27 -38 27 -14 0 -31 -4 -38 -8z
m69 -124 c10 -51 21 -104 23 -118 3 -14 8 -36 11 -50 3 -14 12 -61 19 -105 8
-44 17 -93 20 -108 3 -16 7 -45 10 -65 2 -21 7 -48 10 -62 4 -14 8 -32 9 -40
1 -9 4 -20 8 -25 3 -6 4 -21 3 -35 -1 -14 0 -29 3 -35 3 -5 7 -16 7 -25 11
-115 37 -178 66 -157 18 13 54 88 140 290 18 43 42 83 52 89 15 8 18 7 12 -3
-6 -9 -3 -11 8 -6 9 3 16 3 15 -1 -1 -4 21 -32 49 -62 49 -52 52 -54 77 -40
14 7 24 15 21 18 -2 3 7 24 20 47 14 23 25 50 25 59 0 10 5 14 11 10 7 -4 10
-1 7 7 -3 8 6 25 20 38 l26 24 28 -34 c16 -19 39 -46 52 -61 13 -15 21 -30 18
-33 -3 -3 0 -5 6 -5 7 0 12 -5 12 -12 0 -16 51 -68 66 -68 7 0 21 11 32 25 11
13 21 22 24 20 2 -3 10 12 18 33 7 20 23 53 35 72 12 19 22 38 21 42 -1 3 9
17 20 30 21 23 48 67 49 80 0 3 18 34 39 67 22 34 41 68 42 77 1 9 12 23 24
31 13 10 19 21 15 31 -3 9 -3 13 1 9 4 -4 13 2 21 13 15 21 43 17 43 -6 0 -15
-17 -48 -37 -74 -6 -8 -13 -22 -15 -30 -2 -8 -9 -20 -16 -25 -7 -6 -14 -18
-16 -27 -1 -10 -10 -26 -21 -38 -10 -11 -14 -20 -10 -20 5 0 -2 -11 -15 -25
-13 -14 -20 -25 -16 -25 4 0 0 -7 -8 -16 -9 -8 -16 -23 -16 -31 0 -9 -3 -13
-7 -10 -4 4 -22 -23 -40 -60 -41 -83 -69 -131 -89 -150 -8 -8 -12 -19 -9 -24
4 -5 1 -9 -4 -9 -6 0 -11 -5 -11 -10 0 -6 -9 -20 -19 -31 -25 -27 -36 -20 -97
56 -26 33 -53 63 -59 67 -6 5 -6 8 0 8 6 0 -3 11 -19 25 -35 30 -32 29 -55 8
-19 -19 -74 -123 -65 -123 3 0 -2 -7 -10 -16 -9 -8 -16 -22 -16 -30 0 -8 -4
-13 -9 -10 -5 4 -11 1 -13 -6 -3 -7 -26 10 -55 40 -27 28 -49 53 -47 55 2 1
-5 8 -16 14 -15 10 -23 8 -45 -9 -15 -12 -24 -26 -21 -35 4 -8 1 -11 -5 -8 -6
4 -9 1 -8 -6 2 -8 -7 -33 -19 -56 -12 -24 -20 -43 -16 -43 4 0 2 -6 -4 -12
-12 -16 -122 -263 -122 -276 0 -5 -6 -15 -13 -21 -20 -16 -49 9 -53 45 -5 46
-13 91 -35 209 -12 61 -23 121 -26 135 -2 14 -5 36 -8 50 -13 84 -70 398 -80
445 -17 82 -53 63 -110 -58 -23 -51 -54 -118 -69 -149 -15 -32 -27 -60 -26
-64 1 -4 -3 -10 -9 -13 -8 -5 -50 -89 -56 -111 0 -3 -9 -20 -18 -37 -10 -18
-15 -33 -12 -33 4 0 0 -7 -9 -15 -22 -23 -52 -18 -71 12 -33 49 -149 159 -121
114 3 -5 -1 -12 -9 -15 -9 -3 -32 -41 -52 -83 -19 -43 -53 -116 -75 -163 -22
-47 -41 -89 -42 -95 -2 -10 -43 -98 -94 -205 -15 -30 -27 -57 -28 -60 0 -3 -8
-22 -17 -42 -10 -21 -17 -42 -17 -48 0 -5 -4 -10 -10 -10 -5 0 -9 -3 -8 -7 2
-5 -4 -18 -13 -31 -32 -46 -51 -16 -138 219 -47 129 -58 149 -76 149 -18 0
-44 -39 -51 -75 -9 -49 -33 -95 -49 -95 -36 0 -31 31 47 270 24 76 34 91 53
83 13 -5 106 -227 121 -289 4 -16 17 -48 30 -71 13 -24 20 -43 16 -43 -4 0 1
-5 10 -11 18 -10 60 4 56 19 -1 4 10 32 26 62 15 30 28 57 28 60 0 3 10 28 23
55 12 28 33 73 45 100 37 81 50 115 48 119 -2 2 6 13 16 25 11 12 15 21 11 21
-4 0 0 10 11 22 10 12 13 18 6 14 -8 -5 -2 10 12 32 14 22 22 43 19 46 -4 3 0
6 7 6 7 0 10 3 7 7 -4 3 3 22 15 42 13 20 21 36 19 36 -1 0 3 12 10 28 18 39
48 35 92 -13 20 -22 34 -40 31 -40 -2 0 11 -16 30 -35 34 -34 54 -46 41 -25
-3 6 1 10 9 10 13 0 31 21 35 42 5 24 43 98 51 98 5 0 7 6 4 14 -3 7 2 21 11
30 9 9 14 16 11 16 -3 0 8 25 24 55 16 30 28 55 25 55 -2 0 9 25 26 55 16 30
30 57 29 60 0 3 20 48 45 100 28 59 51 95 61 95 9 0 12 5 8 13 -5 9 -4 9 6 0
7 -7 21 -54 32 -105z"/>
<path d="M2656 3658 c3 -5 10 -6 15 -3 13 9 11 12 -6 12 -8 0 -12 -4 -9 -9z"/>
<path d="M3897 3268 c-22 -17 -157 -255 -157 -277 0 -24 31 -51 58 -51 21 0
22 -5 22 -74 0 -91 8 -100 104 -104 59 -3 75 -1 95 15 22 18 24 27 22 91 -2
70 -1 72 23 72 30 0 56 24 56 51 0 19 -95 192 -142 262 -21 29 -53 35 -81 15z
m70 -41 c4 -6 1 -7 -8 -2 -8 5 -4 -3 7 -16 12 -13 29 -37 38 -54 9 -16 32 -57
51 -90 39 -69 42 -83 18 -92 -45 -15 -60 -42 -57 -96 5 -74 -1 -80 -88 -81
l-73 -1 -5 65 c-5 69 -23 105 -55 111 -28 6 -30 34 -6 68 12 16 21 35 21 43 1
7 14 28 30 47 16 19 27 38 24 43 -3 4 0 8 5 8 6 0 11 7 11 15 0 25 36 54 59
48 12 -3 24 -10 28 -16z"/>
<path d="M3896 3110 c-15 -17 -24 -36 -20 -42 4 -7 3 -8 -4 -4 -17 10 -15 -6
3 -30 8 -10 15 -27 15 -37 0 -10 3 -16 8 -14 4 3 6 -18 4 -46 -4 -64 16 -100
42 -78 13 11 16 29 15 70 -1 42 3 65 19 91 23 37 21 46 -26 101 -21 25 -24 24
-56 -11z m57 -32 c16 -28 16 -33 3 -40 -12 -7 -16 -27 -16 -88 0 -47 -4 -80
-10 -80 -6 0 -10 33 -10 80 0 61 -4 81 -16 88 -13 7 -13 12 3 40 10 18 20 32
23 32 3 0 13 -14 23 -32z"/>
<path d="M4784 3256 c1 -8 5 -18 8 -22 4 -3 5 1 4 10 -1 8 -5 18 -8 22 -4 3
-5 -1 -4 -10z"/>
<path d="M4391 3219 c-70 -28 -116 -90 -127 -173 -12 -85 37 -174 115 -209 38
-17 67 -21 161 -21 143 -1 181 7 226 46 49 43 74 97 74 158 0 89 -41 157 -115
191 -33 15 -64 18 -175 18 -74 0 -146 -5 -159 -10z m281 -19 c2 -5 15 -11 30
-12 15 -1 24 -6 22 -10 -3 -4 1 -8 8 -8 7 0 26 -14 42 -31 24 -25 30 -41 34
-94 2 -36 1 -72 -2 -82 -4 -10 -6 -18 -4 -18 2 0 -12 -17 -31 -38 -19 -20 -41
-37 -48 -37 -8 0 -12 -4 -9 -8 6 -10 0 -10 -159 -11 -156 -1 -165 0 -165 11 0
5 -4 6 -10 3 -5 -3 -10 -1 -10 4 0 6 -6 11 -14 11 -8 0 -18 9 -21 20 -4 12
-11 17 -18 14 -7 -4 -9 -4 -5 1 4 4 2 17 -4 29 -13 24 -18 146 -6 146 4 0 8 7
8 15 0 9 7 18 15 21 8 4 13 10 10 14 -5 8 39 41 65 49 8 2 69 7 135 11 66 3
123 7 127 8 3 1 8 -2 10 -8z"/>
<path d="M4425 3138 c-34 -12 -58 -29 -51 -36 3 -2 -5 -13 -17 -24 -12 -11
-15 -16 -7 -12 12 6 13 5 4 -7 -31 -41 15 -135 78 -158 38 -13 218 -14 218 -1
0 6 4 9 9 5 17 -10 61 18 80 51 36 61 6 161 -56 185 -33 12 -220 10 -258 -3z
m276 -47 c31 -32 38 -75 17 -114 -22 -42 -38 -46 -166 -47 l-124 0 -30 30
c-27 28 -30 36 -25 73 4 28 14 49 32 64 24 21 36 23 146 23 120 0 121 0 150
-29z"/>
<path d="M3836 2664 c-17 -17 -18 -20 -20 -104 -1 -41 -5 -54 -15 -52 -22 5
-61 -27 -61 -50 0 -33 147 -286 170 -293 11 -4 28 -4 38 -1 19 7 172 263 172
289 0 27 -38 59 -61 52 -18 -6 -19 -1 -19 68 0 98 -10 107 -113 107 -55 0 -80
-4 -91 -16z m175 -34 c1 -8 1 -39 0 -67 -1 -33 3 -53 9 -53 6 0 9 -4 6 -9 -3
-5 10 -16 29 -25 42 -20 43 -29 8 -74 -15 -20 -21 -32 -14 -28 18 11 -2 -26
-23 -43 -9 -8 -13 -17 -10 -22 3 -5 0 -9 -6 -9 -6 0 -8 -4 -5 -10 3 -5 2 -10
-3 -10 -5 0 -15 -14 -22 -30 -12 -29 -44 -60 -62 -60 -4 0 -15 15 -24 33 -9
17 -20 34 -23 37 -3 3 -20 32 -36 65 -16 33 -38 71 -47 84 -26 35 -22 49 18
66 19 8 33 19 30 24 -4 5 -2 12 4 16 5 3 10 33 10 65 0 67 0 68 97 66 48 -1
63 -5 64 -16z"/>
<path d="M3912 2578 c-7 -7 -12 -35 -12 -63 0 -31 -8 -66 -19 -89 l-20 -38 24
-38 c13 -21 28 -41 34 -44 13 -8 42 4 35 15 -3 5 0 9 5 9 6 0 11 7 11 15 0 8
4 15 9 15 19 0 18 39 -2 70 -15 24 -20 46 -18 86 2 43 -1 54 -17 63 -13 7 -22
7 -30 -1z m28 -82 c0 -52 4 -77 14 -86 13 -10 13 -16 -1 -46 -9 -19 -20 -34
-23 -34 -3 0 -14 15 -23 34 -14 30 -14 36 -1 46 10 9 14 34 14 86 0 43 4 74
10 74 6 0 10 -31 10 -74z"/>
<path d="M3766 2652 c-3 -5 1 -9 9 -9 8 0 12 4 9 9 -3 4 -7 8 -9 8 -2 0 -6 -4
-9 -8z"/>
<path d="M4395 2615 c-74 -26 -135 -114 -135 -195 0 -87 69 -178 150 -200 27
-7 90 -10 165 -8 141 4 188 22 232 90 24 36 28 51 28 118 0 67 -3 82 -28 119
-20 29 -44 50 -80 67 -46 21 -66 24 -172 23 -77 0 -134 -5 -160 -14z m296 -28
c3 -4 15 -9 27 -10 11 0 18 -5 15 -11 -4 -5 1 -7 11 -3 10 4 15 3 11 -3 -3 -5
3 -14 14 -19 11 -6 25 -27 31 -46 13 -40 11 -131 -4 -160 -11 -20 -57 -69 -66
-71 -3 0 -25 -6 -50 -13 -68 -20 -274 -10 -300 14 -11 10 -20 14 -20 10 0 -4
-11 5 -24 20 -49 57 -58 201 -15 228 11 7 19 17 19 24 0 12 50 39 84 45 41 7
261 3 267 -5z"/>
<path d="M4435 2540 c-4 -6 -10 -8 -15 -5 -4 3 -19 -4 -31 -16 -13 -11 -17
-18 -9 -14 12 5 12 4 -1 -7 -9 -7 -20 -22 -26 -33 -12 -26 -9 -98 6 -103 6 -2
9 -8 6 -12 -3 -5 11 -20 32 -34 35 -24 46 -26 153 -26 96 0 120 3 147 20 74
45 84 155 19 209 -9 7 -14 16 -12 20 2 3 -56 7 -129 8 -82 2 -136 -1 -140 -7z
m271 -53 c15 -18 24 -41 24 -63 0 -81 -40 -104 -180 -104 -77 0 -109 4 -130
17 -65 38 -66 126 -2 166 22 14 48 17 145 15 116 -3 119 -4 143 -31z"/>
<path d="M4140 2541 c0 -6 4 -13 10 -16 6 -3 7 1 4 9 -7 18 -14 21 -14 7z"/>
<path d="M108 1833 c-12 -15 -15 -57 -17 -220 -3 -193 -2 -205 19 -238 43 -70
-170 -65 2450 -65 2616 0 2406 -5 2449 63 20 32 21 47 20 238 -1 167 -4 207
-17 222 -14 16 -144 17 -2452 17 -2308 0 -2438 -1 -2452 -17z m4892 -223 c0
-211 0 -211 -25 -235 l-24 -25 -2391 0 -2391 0 -24 25 c-25 24 -25 24 -25 235
l0 210 2440 0 2440 0 0 -210z"/>
<path d="M2213 1248 c-17 -19 -22 -42 -27 -138 -9 -149 -14 -193 -37 -320 -10
-57 -16 -106 -14 -108 2 -3 0 -12 -4 -21 -14 -25 -22 -121 -11 -121 6 0 10 -7
10 -15 0 -12 58 -14 418 -14 229 0 426 4 437 9 11 5 16 9 11 9 -5 1 -3 7 3 15
7 8 9 27 6 42 -12 58 -46 271 -51 319 -3 28 -7 56 -9 63 -3 6 -7 60 -11 120
-4 59 -7 114 -8 122 -1 8 -8 25 -16 38 l-15 22 -331 0 c-330 0 -331 0 -351
-22z m695 -163 c13 -159 43 -377 66 -476 l13 -59 -423 0 c-233 0 -424 1 -424
3 0 2 11 69 25 149 26 158 55 409 55 485 l0 48 338 0 339 0 11 -150z"/>
<path d="M1813 463 c-13 -2 -23 -9 -23 -15 0 -6 -3 -8 -7 -5 -8 9 -87 -77 -89
-98 -1 -5 -3 -12 -4 -15 -2 -3 -4 -40 -5 -83 -1 -69 1 -80 19 -93 31 -21 1681
-21 1712 1 19 13 21 22 18 92 -2 43 -4 85 -5 94 -1 24 -59 84 -104 108 -39 21
-44 21 -765 20 -399 -1 -735 -4 -747 -6z m1503 -42 c65 -29 88 -71 93 -163 l3
-78 -852 0 -852 0 3 78 c5 92 28 134 93 163 39 18 80 19 756 19 676 0 717 -1
756 -19z"/>
<path d="M5105 5009 c-4 -6 -5 -12 -2 -15 2 -3 7 2 10 11 7 17 1 20 -8 4z"/>
<path d="M1606 472 c-3 -5 1 -9 9 -9 8 0 12 4 9 9 -3 4 -7 8 -9 8 -2 0 -6 -4
-9 -8z"/>
</g>
</svg>
