<?xml version="1.0" standalone="no"?>
<!DOCTYPE svg PUBLIC "-//W3C//DTD SVG 20010904//EN"
 "http://www.w3.org/TR/2001/REC-SVG-20010904/DTD/svg10.dtd">
<svg version="1.0" xmlns="http://www.w3.org/2000/svg"
 width="512.000000pt" height="512.000000pt" viewBox="0 0 512.000000 512.000000"
 preserveAspectRatio="xMidYMid meet">
<g transform="translate(0.000000,512.000000) scale(0.100000,-0.100000)"
fill="#000000" stroke="none">
<path d="M247 4310 c-59 -15 -109 -45 -153 -92 -66 -69 -78 -99 -82 -218 -3
-104 -3 -105 30 -160 64 -105 178 -167 293 -157 123 9 227 82 281 195 23 49
26 65 22 132 -5 88 -32 151 -91 212 -71 73 -203 112 -300 88z m160 -34 c30 -5
94 -41 101 -59 2 -4 8 -5 13 -1 5 3 9 0 9 -6 0 -6 14 -28 30 -49 17 -21 33
-51 35 -67 3 -16 8 -40 11 -54 16 -63 6 -125 -28 -172 -11 -16 -17 -28 -13
-28 20 0 -102 -100 -130 -107 -5 -1 -19 -4 -30 -7 -83 -19 -103 -22 -127 -15
-15 4 -29 4 -32 1 -3 -3 -6 0 -6 6 0 7 -3 11 -7 10 -12 -3 -54 13 -71 26 -18
14 -102 96 -101 99 0 1 -8 20 -17 42 -9 22 -16 58 -16 80 3 74 14 135 23 129
5 -3 9 2 9 10 0 15 38 86 47 86 2 0 1 -6 -3 -12 -3 -7 13 7 36 32 24 25 40 39
36 33 -5 -9 -2 -11 8 -7 9 3 14 10 11 14 -3 4 2 11 11 14 10 4 13 2 8 -7 -5
-8 -2 -7 9 2 9 7 17 10 17 5 0 -4 5 -3 11 3 11 11 82 10 156 -1z"/>
<path d="M1195 4306 c-163 -52 -257 -204 -224 -364 22 -108 81 -184 179 -231
l55 -26 1675 0 1675 0 56 26 c117 55 184 160 184 289 0 129 -67 234 -184 289
l-56 26 -1660 2 c-1318 1 -1668 -1 -1700 -11z m3376 -31 c16 -9 29 -13 29 -10
0 9 61 -34 85 -59 32 -33 66 -84 72 -108 18 -75 4 -209 -25 -243 -12 -14 -19
-25 -14 -25 4 0 -1 -5 -11 -11 -9 -6 -14 -15 -11 -21 4 -6 2 -8 -4 -4 -6 3
-17 -2 -24 -12 -17 -23 -59 -49 -95 -59 -15 -4 -776 -9 -1690 -10 l-1662 -3
-58 28 c-32 15 -58 33 -58 39 0 6 -4 15 -9 20 -5 5 -6 3 -2 -4 4 -7 4 -13 1
-13 -8 0 -24 17 -58 63 -15 20 -25 37 -22 37 3 0 0 10 -6 23 -17 30 -18 156
-2 189 7 15 12 31 11 35 -1 3 18 30 43 59 38 45 86 78 139 97 8 3 763 6 1678
6 1467 1 1667 -1 1693 -14z"/>
<path d="M545 4281 c-3 -5 -2 -12 3 -15 5 -3 9 1 9 9 0 17 -3 19 -12 6z"/>
<path d="M617 3795 c-4 -8 -3 -16 1 -19 4 -3 9 4 9 15 2 23 -3 25 -10 4z"/>
<path d="M85 2871 c-3 -5 -2 -12 3 -15 5 -3 9 1 9 9 0 17 -3 19 -12 6z"/>
<path d="M235 2867 c-64 -21 -97 -42 -141 -89 -69 -72 -79 -98 -79 -218 0
-122 14 -159 88 -227 53 -49 76 -62 142 -79 154 -41 296 25 366 171 57 119 33
257 -62 355 -78 80 -218 119 -314 87z m212 -48 c26 -13 61 -37 78 -54 29 -29
67 -82 63 -87 -1 -2 5 -14 12 -28 18 -33 19 -149 2 -177 -7 -12 -15 -28 -16
-35 -3 -19 -38 -70 -61 -90 -56 -48 -81 -65 -93 -61 -6 3 -9 10 -6 15 4 7 2 8
-5 4 -6 -4 -9 -11 -6 -16 12 -19 -48 -27 -125 -16 -69 9 -75 11 -88 24 -7 6
-19 12 -25 12 -7 0 -27 14 -45 30 -18 17 -31 30 -28 30 3 0 -5 11 -17 24 -38
41 -60 119 -53 184 9 81 11 89 24 105 7 7 9 16 6 19 -3 3 7 15 22 27 15 11 23
21 19 21 -5 0 2 11 15 25 12 13 27 22 31 19 5 -3 9 0 9 5 0 6 5 11 12 11 6 0
20 8 31 18 11 9 17 12 13 5 -5 -9 1 -8 19 1 40 21 154 13 212 -15z"/>
<path d="M1176 2860 c-138 -54 -209 -155 -209 -300 -1 -129 65 -233 183 -289
l55 -26 1835 0 1835 0 55 26 c70 33 126 89 157 157 30 64 34 186 8 248 -38 93
-118 165 -211 192 -31 9 -488 12 -1850 12 -1754 -1 -1810 -2 -1858 -20z m3675
-19 c45 5 189 -85 189 -118 0 -5 5 -14 12 -21 6 -6 13 -17 14 -24 2 -7 9 -37
17 -66 13 -50 10 -91 -11 -152 -3 -8 -6 -18 -6 -22 -1 -4 -9 -16 -18 -28 -10
-11 -16 -20 -14 -20 16 0 -78 -77 -114 -94 l-45 -21 -1820 0 c-1001 0 -1834 2
-1852 5 -17 3 -29 8 -27 12 2 3 -9 9 -24 13 -41 9 -95 56 -117 104 -11 22 -22
41 -25 41 -17 0 -15 175 2 222 8 21 24 48 36 61 12 13 20 27 17 30 -3 4 -2 5
1 3 3 -3 26 11 51 30 24 19 53 34 63 34 10 0 22 4 25 10 4 6 642 10 1802 10
988 0 1799 2 1802 5 2 3 8 0 11 -6 4 -6 18 -10 31 -8z"/>
<path d="M5010 2876 c0 -2 8 -10 18 -17 15 -13 16 -12 3 4 -13 16 -21 21 -21
13z"/>
<path d="M616 2768 c3 -5 10 -6 15 -3 13 9 11 12 -6 12 -8 0 -12 -4 -9 -9z"/>
<path d="M235 1427 c-66 -22 -98 -43 -146 -94 -65 -69 -82 -121 -77 -230 5
-100 29 -155 98 -217 49 -44 82 -61 148 -75 85 -18 131 -14 197 17 202 96 249
358 93 514 -80 80 -216 116 -313 85z m183 -32 c17 -4 32 -11 32 -16 0 -4 8
-10 18 -13 25 -8 88 -65 85 -77 -2 -5 1 -9 6 -9 5 0 19 -24 32 -52 25 -58 29
-150 9 -204 -17 -45 -61 -104 -73 -97 -6 3 -7 1 -3 -5 3 -6 -1 -17 -9 -24 -9
-7 -22 -18 -29 -25 -8 -7 -16 -9 -20 -6 -3 4 -6 1 -6 -4 0 -6 -11 -10 -24 -9
-14 2 -27 -3 -30 -10 -4 -10 -25 -13 -84 -10 -65 3 -90 10 -140 36 -34 18 -62
34 -62 37 0 2 6 1 13 -2 6 -4 3 1 -7 9 -11 9 -24 16 -29 16 -4 0 -6 4 -3 8 3
5 -4 16 -15 25 -10 9 -19 26 -19 37 0 11 -4 20 -8 20 -5 0 -9 6 -10 13 0 6 -4
28 -7 47 -10 50 -7 83 10 124 8 20 13 36 9 36 -7 0 33 58 65 92 14 15 28 25
33 22 4 -3 8 -1 8 4 0 13 49 34 90 39 19 2 36 6 39 9 6 6 82 -1 129 -11z"/>
<path d="M533 1427 c0 -8 6 -14 14 -14 9 0 10 4 2 14 -6 7 -12 13 -14 13 -1 0
-2 -6 -2 -13z"/>
<path d="M1190 1427 c-88 -27 -166 -99 -206 -192 -26 -59 -24 -176 5 -240 25
-58 90 -128 141 -155 78 -40 114 -41 1230 -38 l1075 3 55 26 c105 50 179 154
188 267 12 142 -88 287 -226 328 -37 12 -242 14 -1136 13 -743 -1 -1102 -4
-1126 -12z m1165 -17 c961 -1 1080 -3 1101 -17 13 -8 24 -12 24 -9 0 4 17 -5
38 -21 43 -32 104 -90 82 -78 -8 5 -6 -2 6 -16 30 -35 41 -54 23 -44 -12 7
-12 6 -1 -8 20 -24 24 -153 6 -188 -8 -16 -12 -29 -9 -29 3 0 -3 -12 -12 -27
-26 -40 -89 -94 -136 -118 -42 -20 -53 -20 -1147 -19 -608 0 -1117 2 -1132 5
-14 2 -24 7 -21 12 2 4 -2 7 -10 7 -8 0 -27 10 -43 22 -15 13 -24 16 -19 8 4
-8 -8 3 -28 24 -20 22 -39 48 -43 58 -3 10 -9 18 -14 18 -4 0 -11 7 -14 16 -3
9 -2 12 5 8 6 -3 4 7 -3 22 -18 36 -16 150 2 184 8 14 15 31 16 39 2 7 12 23
23 35 12 13 18 26 14 31 -5 4 -3 5 4 1 6 -3 15 0 20 8 10 18 82 56 106 56 10
0 16 4 13 8 -3 5 8 6 25 4 18 -3 29 0 29 7 0 7 4 10 9 7 4 -3 493 -6 1086 -6z"/>
<path d="M3635 1351 c-3 -5 -2 -12 3 -15 5 -3 9 1 9 9 0 17 -3 19 -12 6z"/>
<path d="M616 1328 c3 -5 10 -6 15 -3 13 9 11 12 -6 12 -8 0 -12 -4 -9 -9z"/>
<path d="M616 908 c3 -5 10 -6 15 -3 13 9 11 12 -6 12 -8 0 -12 -4 -9 -9z"/>
</g>
</svg>
